<svg width="50" height="50" viewBox="0 0 50 50" fill="none" xmlns="http://www.w3.org/2000/svg">
<path d="M33.3333 0H16.6667V4.7619H33.3333V0ZM22.2222 30.9524H27.7778V16.6667H22.2222V30.9524ZM44.5278 15.2143L48.4722 11.8333C47.2778 10.619 45.9722 9.47619 44.5556 8.47619L40.6111 11.8571C36.3056 8.90476 30.8889 7.14286 25 7.14286C11.1944 7.14286 0 16.7381 0 28.5714C0 40.4048 11.1667 50 25 50C38.8333 50 50 40.4048 50 28.5714C50 23.5238 47.9444 18.881 44.5278 15.2143ZM25 45.2381C14.25 45.2381 5.55556 37.7857 5.55556 28.5714C5.55556 19.3571 14.25 11.9048 25 11.9048C35.75 11.9048 44.4444 19.3571 44.4444 28.5714C44.4444 37.7857 35.75 45.2381 25 45.2381Z" fill="url(#paint0_linear)"/>
<defs>
<linearGradient id="paint0_linear" x1="50" y1="-2.98023e-06" x2="-8.82353" y2="14.7059" gradientUnits="userSpaceOnUse">
<stop stop-color="#E52E71"/>
<stop offset="1" stop-color="#FF8A00"/>
</linearGradient>
</defs>
</svg>